<svg width="35" height="32" viewBox="0 0 35 32" fill="none" xmlns="http://www.w3.org/2000/svg">
<path d="M28.3334 6.66669C25.1934 2.48002 21.2 0.166687 17 0.166687C12.8 0.166687 8.80669 2.48002 5.66669 6.66669C3.30502 9.81502 0.45669 14.0667 0.0633571 18.54C-0.13831 20.8467 0.308357 23.2084 1.76169 25.4567C3.19669 27.6767 5.54169 29.675 8.95336 31.4234C11.0517 32.4984 13.3367 31.0567 13.635 28.9517C12.9257 28.4742 12.2756 27.9142 11.6984 27.2834C10.01 25.4417 8.66502 22.745 8.66502 19.3334C8.66502 13.62 11.615 9.77502 15.165 8.76002C15.635 8.62669 16.165 8.98002 16.2217 9.46669C16.4569 11.4817 17.4191 13.3417 18.9278 14.6979C20.4365 16.0541 22.3881 16.8134 24.4167 16.8334C25.54 16.8434 25.3334 18.6 25.3334 19.3334C25.3334 22.745 23.99 25.4417 22.3 27.2834C21.6967 27.9434 21.0334 28.5067 20.36 28.955C20.6267 31.0684 22.89 32.5217 24.99 31.5067C28.5984 29.7667 31.0617 27.7684 32.5534 25.5317C34.065 23.2617 34.4917 20.87 34.2317 18.5417C33.7317 14.0584 30.67 9.78002 28.3334 6.66669Z" fill="#FD269B"/>
</svg>
