<svg width="36" height="34" viewBox="0 0 36 34" fill="none" xmlns="http://www.w3.org/2000/svg">
<path d="M28.8333 12H25.5M25.5 12H22.1666M25.5 12V8.66666M25.5 12V15.3333" stroke="#FD269B" stroke-width="1.5" stroke-linecap="round"/>
<path d="M18 6.28999L17.0866 7.14332C17.2036 7.26848 17.345 7.36826 17.5021 7.43648C17.6592 7.5047 17.8287 7.5399 18 7.5399C18.1713 7.5399 18.3407 7.5047 18.4978 7.43648C18.655 7.36826 18.7964 7.26848 18.9133 7.14332L18 6.28999ZM2.41998 19.8033C2.50244 19.9486 2.6132 20.0759 2.7457 20.1777C2.8782 20.2795 3.02976 20.3536 3.19142 20.3958C3.35308 20.438 3.52155 20.4474 3.68689 20.4234C3.85223 20.3993 4.01107 20.3424 4.15403 20.2559C4.29699 20.1695 4.42116 20.0552 4.51921 19.9199C4.61726 19.7847 4.6872 19.6311 4.72489 19.4683C4.76258 19.3056 4.76726 19.1369 4.73865 18.9723C4.71003 18.8077 4.64872 18.6505 4.55831 18.51L2.41998 19.8033ZM8.89498 23.9517C8.78204 23.8278 8.64535 23.728 8.49304 23.6581C8.34074 23.5881 8.17592 23.5495 8.0084 23.5446C7.84088 23.5396 7.67407 23.5684 7.5179 23.6292C7.36173 23.69 7.21938 23.7816 7.09932 23.8985C6.97925 24.0155 6.88393 24.1554 6.81902 24.3099C6.75411 24.4644 6.72093 24.6304 6.72145 24.798C6.72198 24.9656 6.75621 25.1313 6.82209 25.2854C6.88798 25.4395 6.98418 25.5788 7.10498 25.695L8.89498 23.9517ZM2.58331 12.53C2.58331 7.68832 4.69665 4.69666 7.30998 3.67166C9.91831 2.64999 13.5666 3.37999 17.0866 7.14332L18.9133 5.43666C14.9333 1.17999 10.2483 -0.163344 6.39831 1.34332C2.55331 2.84999 0.083313 6.98666 0.083313 12.53H2.58331ZM23.85 30.2667C26.3383 28.2483 29.3183 25.5433 31.6883 22.5217C34.0333 19.5317 35.9166 16.0567 35.9166 12.5267H33.4166C33.4166 15.2133 31.95 18.1333 29.72 20.9783C27.5133 23.7933 24.6933 26.365 22.2766 28.325L23.85 30.2667ZM35.9166 12.5267C35.9166 6.98499 33.4466 2.84832 29.6 1.34332C25.75 -0.165011 21.0666 1.17666 17.0866 5.43499L18.9133 7.14332C22.4333 3.37999 26.0816 2.64832 28.69 3.66999C31.3033 4.69332 33.4166 7.68666 33.4166 12.5267H35.9166ZM12.15 30.2683C14.2666 31.9883 15.7366 33.25 18 33.25V30.75C16.795 30.75 16.045 30.21 13.7233 28.3267L12.15 30.2683ZM22.2766 28.325C19.955 30.2083 19.205 30.75 18 30.75V33.25C20.2633 33.25 21.735 31.9883 23.8516 30.2683L22.2766 28.325ZM4.55998 18.51C3.31165 16.45 2.58331 14.425 2.58331 12.53H0.083313C0.083313 15.05 1.04331 17.53 2.41998 19.8033L4.55831 18.51H4.55998ZM13.7233 28.3267C12.031 26.9625 10.4189 25.5017 8.89498 23.9517L7.10498 25.695C8.69653 27.3154 10.3821 28.8424 12.15 30.2683L13.7233 28.3267Z" fill="#FD269B"/>
</svg>
