<svg width="36" height="36" viewBox="0 0 36 36" fill="none" xmlns="http://www.w3.org/2000/svg">
<path d="M10.4834 32.8958C7.02703 31.2004 4.24532 28.3863 2.5899 24.9106C0.934482 21.4349 0.502567 17.5017 1.36429 13.7496C2.22601 9.99746 4.33077 6.64682 7.3368 4.24169C10.3428 1.83655 14.0736 0.518182 17.9234 0.500635C21.7731 0.483088 25.5158 1.7674 28.5436 4.14503C31.5714 6.52265 33.7066 9.85398 34.6025 13.5981C35.4984 17.3422 35.1024 21.2792 33.4787 24.7698C31.855 28.2605 29.0991 31.0998 25.6584 32.8267" stroke="#FD269B" stroke-linecap="round" stroke-linejoin="round"/>
<path d="M24.5133 30.1717L22.855 33.8084L26.3916 35.5" stroke="#FD269B" stroke-linecap="round" stroke-linejoin="round"/>
<path d="M19.0925 10.0075C20.1096 10.0075 20.9342 9.18295 20.9342 8.16582C20.9342 7.1487 20.1096 6.32416 19.0925 6.32416C18.0754 6.32416 17.2509 7.1487 17.2509 8.16582C17.2509 9.18295 18.0754 10.0075 19.0925 10.0075Z" stroke="#FD269B" stroke-linecap="round" stroke-linejoin="round"/>
<path d="M14.4192 23.185L11.9867 26.1475C10.8217 27.4958 12.5034 28.6783 13.7367 27.5117L16.1192 24.51L16.9009 21.5767L18.1584 22.8333L18.9967 27.1725C19.5509 28.38 21.3534 28.3142 21.2942 26.7608L20.0525 22.1242L18.2717 19.0408L19.2692 15.32L20.3817 15.6183C20.3658 15.7454 20.3879 15.8744 20.4453 15.9889C20.5027 16.1035 20.5928 16.1984 20.7042 16.2617C21.0917 16.4683 23.8775 17.3217 23.8775 17.3217C25.63 17.86 25.8275 16.0958 24.4109 15.685L22.0917 15.0625L20.9434 13.1508L19.0775 11.4792L16.225 11.4125L12.1934 13.8467L10.6959 17.8483C10.365 18.9667 11.9684 19.2575 12.4117 18.3883C12.6267 18.0067 13.71 15.4283 13.71 15.4283L16.0634 14.26L14.9125 19.5383L14.4192 23.185Z" stroke="#FD269B" stroke-linecap="round" stroke-linejoin="round"/>
</svg>
