<svg width="37" height="37" viewBox="0 0 37 37" fill="none" xmlns="http://www.w3.org/2000/svg">
<path d="M36.0425 0.25H31.0525C30.9002 0.250043 30.7531 0.305701 30.639 0.406517C30.5248 0.507333 30.4514 0.646367 30.4325 0.7975L29.9637 4.5475C29.9528 4.63532 29.9606 4.72446 29.9866 4.80904C30.0127 4.89361 30.0564 4.97169 30.1149 5.0381C30.1734 5.10451 30.2453 5.15774 30.3259 5.19427C30.4066 5.2308 30.494 5.2498 30.5825 5.25H32.25L31.5663 9.0075C31.3668 9.01511 31.1694 9.05088 30.98 9.11375C30.8129 9.16821 30.6536 9.24427 30.5062 9.34C30.4825 9.35625 30.4625 9.37375 30.44 9.39125C30.3114 9.48368 30.1947 9.59158 30.0925 9.7125C30.0762 9.73125 30.0588 9.7475 30.0425 9.7675C29.9397 9.90183 29.8572 10.0505 29.7975 10.2088C29.7937 10.2238 29.7812 10.235 29.7762 10.25H29.785C29.7162 10.4314 29.6798 10.6235 29.6775 10.8175L29.6788 10.875V12.6337C29.6788 12.9487 29.5 13.2638 29.33 13.4938C29.1975 13.6738 29.25 13.94 29.47 13.9738C30.9638 14.1975 33.6312 12.9987 33.6312 10.8187C33.6312 10.6187 33.5875 10.4313 33.5238 10.2513H33.5325C33.5275 10.2363 33.515 10.225 33.5087 10.21C33.4485 10.052 33.366 9.90341 33.2638 9.76875C33.2488 9.74875 33.23 9.7325 33.215 9.71375C33.1126 9.59252 32.9955 9.48459 32.8662 9.3925C32.8437 9.37625 32.8238 9.3575 32.8 9.3425L32.78 9.3275L33.5212 5.25H35.0213C35.3259 5.24991 35.62 5.1386 35.8483 4.93697C36.0766 4.73533 36.2235 4.45727 36.2612 4.155L36.6613 0.9525C36.6722 0.864684 36.6644 0.775539 36.6384 0.690963C36.6123 0.606388 36.5686 0.528311 36.5101 0.461899C36.4516 0.395487 36.3797 0.342255 36.2991 0.305726C36.2184 0.269196 36.131 0.250202 36.0425 0.25ZM32.83 1.61375L32.205 4.11375C32.1748 4.23442 32.098 4.33817 31.9913 4.40217C31.8846 4.46616 31.7569 4.48517 31.6363 4.455C31.5156 4.42483 31.4118 4.34796 31.3478 4.2413C31.2838 4.13464 31.2648 4.00692 31.295 3.88625L31.92 1.38625C31.9502 1.26558 32.027 1.16183 32.1337 1.09783C32.2404 1.03384 32.3681 1.01483 32.4887 1.045C32.6094 1.07517 32.7132 1.15204 32.7772 1.2587C32.8412 1.36536 32.8602 1.49308 32.83 1.61375ZM32.4175 19.3575C32.4175 18.3187 32.02 17.2775 31.2275 16.485C30.9341 16.1925 30.5368 16.0282 30.1225 16.0282C29.7082 16.0282 29.3109 16.1925 29.0175 16.485L28.7575 16.745C28.5423 15.8803 28.098 15.0896 27.4712 14.4562C27.3575 14.3425 27.2263 14.2575 27.1038 14.1562C27.105 14.1225 27.1138 14.0888 27.1138 14.0538C27.1138 13.015 26.7163 11.9737 25.925 11.1812C25.6316 10.8887 25.2343 10.7245 24.82 10.7245C24.4057 10.7245 24.0084 10.8887 23.715 11.1812L21.6862 13.2087C21.516 12.5536 21.2136 11.9402 20.7975 11.4063C21.4453 10.6724 21.8054 9.72883 21.8112 8.75C21.8112 7.71125 21.4138 6.67 20.6213 5.8775C20.3279 5.585 19.9305 5.42074 19.5162 5.42074C19.102 5.42074 18.7046 5.585 18.4113 5.8775L13.9925 10.2975L0.5 23.7487V35.875C0.5 36.0408 0.565848 36.1997 0.683058 36.3169C0.800269 36.4342 0.95924 36.5 1.125 36.5H23.1038L31.0063 28.5975C31.471 28.1334 31.8396 27.5821 32.091 26.9753C32.3424 26.3685 32.4716 25.7181 32.4712 25.0613C32.4639 23.9548 32.0888 22.8823 31.405 22.0125C32.0688 21.2512 32.4175 20.3075 32.4175 19.3575ZM3 24.7838L13.7763 14.0087C13.8463 14.0987 13.91 14.1912 13.9925 14.2737C14.2535 14.5352 14.5635 14.7425 14.9047 14.8839C15.246 15.0253 15.6119 15.0978 15.9813 15.0975C16.7 15.0975 17.4212 14.8225 17.97 14.2737L19.0262 13.2175C19.245 13.6 19.3637 14.0225 19.365 14.4537C19.3659 14.7822 19.3016 15.1075 19.1759 15.4109C19.0501 15.7143 18.8654 15.9897 18.6325 16.2213L3 31.855V24.7838ZM4.39 34L19.0775 19.3125C19.1475 19.4025 19.2112 19.495 19.2937 19.5775C19.5547 19.8389 19.8647 20.0463 20.206 20.1876C20.5473 20.329 20.9131 20.4016 21.2825 20.4013C22.0012 20.4013 22.7237 20.1262 23.2712 19.5775L25.9225 16.9262C25.9837 16.865 26.0262 16.7938 26.0825 16.73C26.3659 17.2048 26.4824 17.7608 26.4133 18.3094C26.3442 18.858 26.0935 19.3678 25.7012 19.7575L11.4613 34H4.39ZM29.2387 26.83L22.0687 34H14.9975L24.3825 24.615C24.4525 24.705 24.5175 24.7987 24.6 24.8812C24.861 25.1427 25.171 25.35 25.5122 25.4914C25.8535 25.6328 26.2194 25.7053 26.5888 25.705C27.3075 25.705 28.0287 25.43 28.5775 24.8812L29.6337 23.825C29.8525 24.2075 29.9712 24.63 29.9725 25.0613C29.9728 25.3899 29.9081 25.7153 29.7822 26.0189C29.6562 26.3224 29.4716 26.5981 29.2387 26.83Z" fill="#FD269B"/>
</svg>
