<svg width="47" height="32" viewBox="0 0 47 32" fill="none" xmlns="http://www.w3.org/2000/svg">
<path d="M31.0284 4.01408C30.2969 4.0127 29.5687 4.11383 28.8653 4.31451L28.8653 4.31448L28.8595 4.31619C28.6371 4.38254 28.4037 4.40397 28.1729 4.37925C27.9421 4.35453 27.7186 4.28414 27.5152 4.17219C27.3119 4.06024 27.1329 3.90896 26.9886 3.72715C26.8443 3.54535 26.7376 3.33666 26.6747 3.11322C26.6119 2.88979 26.5941 2.65608 26.6224 2.42571C26.6507 2.19533 26.7246 1.97289 26.8397 1.77134C26.9548 1.56978 27.1088 1.39314 27.2929 1.25169C27.4769 1.11025 27.6872 1.00682 27.9116 0.947442L27.9116 0.947526L27.9206 0.944972C28.9308 0.657368 29.9763 0.512335 31.0266 0.514085L31.0289 0.514078C33.3891 0.507224 35.6941 1.22793 37.63 2.57807C39.5659 3.92821 41.0387 5.84218 41.8478 8.05937C42.6569 10.2766 42.763 12.6893 42.1517 14.9689C41.5404 17.2486 40.2414 19.2845 38.4315 20.7994L37.8212 21.3102L38.5463 21.6384C41.5196 22.9839 44.0782 25.1013 45.956 27.7705L45.9582 27.7736C46.0916 27.9603 46.1867 28.1716 46.2377 28.3953C46.2888 28.619 46.2948 28.8506 46.2556 29.0767C46.2163 29.3027 46.1325 29.5188 46.009 29.7121C45.8856 29.9055 45.7249 30.0724 45.5363 30.2032L45.5363 30.2031L45.5305 30.2073C45.2385 30.4159 44.8885 30.5276 44.5297 30.5266C44.2491 30.5249 43.9729 30.4564 43.724 30.3269C43.4749 30.1972 43.2603 30.0102 43.0978 29.7811M31.0284 4.01408L31.0275 4.51408V4.01408C31.0278 4.01408 31.0281 4.01408 31.0284 4.01408ZM31.0284 4.01408C33.1498 4.01433 35.1842 4.85716 36.6843 6.35723C38.1846 7.85752 39.0275 9.89235 39.0275 12.0141C39.0275 14.1358 38.1846 16.1706 36.6843 17.6709C35.184 19.1712 33.1492 20.0141 31.0275 20.0141C30.5633 20.0141 30.1182 20.1985 29.79 20.5266C29.4618 20.8548 29.2775 21.3 29.2775 21.7641C29.2775 22.2282 29.4618 22.6733 29.79 23.0015C30.1182 23.3297 30.5633 23.5141 31.0275 23.5141H31.028C33.3948 23.5167 35.7263 24.0873 37.8267 25.1781C39.9268 26.2686 41.7344 27.8471 43.0978 29.7811M43.0978 29.7811C43.0978 29.7811 43.0978 29.7811 43.0978 29.7811L42.6903 30.0701L43.0986 29.7823C43.0984 29.7819 43.0981 29.7815 43.0978 29.7811ZM23.1493 20.8002L22.542 21.3111L23.2651 21.6384C26.2384 22.9839 28.7969 25.1013 30.6748 27.7705L30.6819 27.7807L30.6896 27.7905C30.8354 27.9774 30.9418 28.1919 31.0023 28.4212C31.0627 28.6504 31.0759 28.8896 31.0411 29.1241C31.0063 29.3586 30.9242 29.5836 30.7999 29.7854C30.6755 29.9873 30.5114 30.1617 30.3175 30.2982C30.1237 30.4347 29.9041 30.5304 29.6722 30.5794C29.4402 30.6285 29.2007 30.6299 28.9682 30.5836C28.7357 30.5373 28.515 30.4442 28.3196 30.31C28.1241 30.1758 27.958 30.0033 27.8312 29.803L27.8248 29.7928L27.8179 29.783C26.4572 27.845 24.6498 26.263 22.5487 25.1709C20.4475 24.0788 18.1142 23.5087 15.7462 23.5087C13.3782 23.5087 11.0449 24.0788 8.94374 25.1709C6.84256 26.263 5.03521 27.845 3.67449 29.783L3.67337 29.7846C3.51341 30.0143 3.30014 30.2019 3.05182 30.3311C2.80351 30.4603 2.52756 30.5274 2.24764 30.5266L2.24457 30.5266C1.88557 30.5278 1.53527 30.4161 1.2432 30.2073L1.2408 30.2056C0.862222 29.9384 0.605096 29.5319 0.525813 29.0753C0.44653 28.6188 0.551565 28.1494 0.817879 27.7702C2.69569 25.1011 5.25417 22.9838 8.22734 21.6384L8.95042 21.3111L8.34307 20.8002C6.53804 19.2817 5.2436 17.2449 4.63525 14.9659C4.0269 12.687 4.13406 10.276 4.94221 8.05998C5.75036 5.84395 7.2204 3.93002 9.15303 2.57768C11.0857 1.22534 13.3874 0.5 15.7462 0.5C18.105 0.5 20.4067 1.22534 22.3394 2.57768C24.272 3.93002 25.742 5.84395 26.5502 8.05998C27.3583 10.276 27.4655 12.687 26.8571 14.9659C26.2488 17.2449 24.9544 19.2817 23.1493 20.8002ZM9.09444 7.56952C8.21539 8.88511 7.7462 10.4318 7.7462 12.0141C7.7462 14.1358 8.58905 16.1706 10.0893 17.6709C11.5896 19.1712 13.6245 20.0141 15.7462 20.0141C17.3284 20.0141 18.8752 19.5449 20.1908 18.6658C21.5064 17.7868 22.5317 16.5374 23.1372 15.0755C23.7427 13.6137 23.9012 12.0052 23.5925 10.4534C23.2838 8.90151 22.5219 7.47605 21.4031 6.35723C20.2842 5.23841 18.8588 4.47648 17.3069 4.1678C15.7551 3.85912 14.1465 4.01754 12.6847 4.62304C11.2229 5.22854 9.97349 6.25393 9.09444 7.56952Z" fill="#F178B6" stroke="#F178B6"/>
</svg>
