<svg width="1440" height="490" viewBox="0 0 1440 490" fill="none" xmlns="http://www.w3.org/2000/svg">
<g clip-path="url(#clip0_66_161)">
<path d="M1440 245L1413 277.7C1386.11 310 1331.81 376 1278.22 375.7C1224.33 376 1170.03 310 1116.44 285.8C1062.55 261 1008.26 278 954.667 294C900.774 310 846.478 327 792.889 351.2C738.997 376 684.7 408 631.111 375.7C577.219 343 522.922 245 469.333 196C415.441 147 361.144 147 307.556 196C253.663 245 199.367 343 145.778 351.2C91.8855 359 37.5889 278 -16 277.7C-69.8922 278 -124.189 359 -177.778 408.3C-231.67 457 -285.967 474 -339.556 416.5C-393.448 359 -447.745 229 -501.333 204.2C-555.226 180 -609.522 261 -663.111 294C-717.003 327 -771.3 310 -824.889 269.5C-878.781 229 -933.078 163 -986.667 171.5C-1040.56 180 -1094.86 261 -1148.44 261.3C-1202.34 261 -1256.63 180 -1310.22 155.2C-1364.11 131 -1418.41 163 -1472 187.8C-1525.89 212 -1580.19 229 -1633.78 277.7C-1687.67 327 -1741.97 408 -1795.56 449.2C-1849.45 490 -1903.74 490 -1957.33 465.5C-2011.23 441 -2065.52 392 -2119.11 383.8C-2173 376 -2227.3 408 -2280.89 375.7C-2334.78 343 -2389.08 245 -2415.37 196L-2442.67 147V1.09673e-05H-2415.67C-2388.77 1.09673e-05 -2334.48 1.09673e-05 -2280.89 1.09673e-05C-2227 1.09673e-05 -2172.7 1.09673e-05 -2119.11 1.09673e-05C-2065.22 1.09673e-05 -2010.92 1.09673e-05 -1957.33 1.09673e-05C-1903.44 1.09673e-05 -1849.14 1.09673e-05 -1795.56 1.09673e-05C-1741.66 1.09673e-05 -1687.37 1.09673e-05 -1633.78 1.09673e-05C-1579.89 1.09673e-05 -1525.59 1.09673e-05 -1472 1.09673e-05C-1418.11 1.09673e-05 -1363.81 1.09673e-05 -1310.22 1.09673e-05C-1256.33 1.09673e-05 -1202.03 1.09673e-05 -1148.44 1.09673e-05C-1094.55 1.09673e-05 -1040.26 1.09673e-05 -986.667 1.09673e-05C-932.774 1.09673e-05 -878.478 1.09673e-05 -824.889 1.09673e-05C-770.997 1.09673e-05 -716.7 1.09673e-05 -663.111 1.09673e-05C-609.219 1.09673e-05 -554.922 1.09673e-05 -501.333 1.09673e-05C-447.441 1.09673e-05 -393.145 1.09673e-05 -339.556 1.09673e-05C-285.663 1.09673e-05 -231.367 1.09673e-05 -177.778 1.09673e-05C-123.886 1.09673e-05 -69.5889 1.09673e-05 -16 1.09673e-05C37.8922 1.09673e-05 92.1888 1.09673e-05 145.778 1.09673e-05C199.67 1.09673e-05 253.967 1.09673e-05 307.556 1.09673e-05C361.448 1.09673e-05 415.744 1.09673e-05 469.333 1.09673e-05C523.226 1.09673e-05 577.522 1.09673e-05 631.111 1.09673e-05C685.003 1.09673e-05 739.3 1.09673e-05 792.889 1.09673e-05C846.781 1.09673e-05 901.078 1.09673e-05 954.667 1.09673e-05C1008.56 1.09673e-05 1062.86 1.09673e-05 1116.44 1.09673e-05C1170.34 1.09673e-05 1224.63 1.09673e-05 1278.22 1.09673e-05C1332.11 1.09673e-05 1386.41 1.09673e-05 1412.7 1.09673e-05H1440V245Z" fill="url(#paint0_linear_66_161)"/>
<path opacity="0.9" d="M1440 392L1413 343C1386.11 294 1331.81 196 1278.22 204.2C1224.33 212 1170.03 327 1116.44 343C1062.55 359 1008.26 278 954.667 277.7C900.774 278 846.478 359 792.889 334.8C738.997 310 684.7 180 631.111 147C577.219 114 522.922 180 469.333 212.3C415.441 245 361.144 245 307.556 228.7C253.663 212 199.367 180 145.778 147C91.8855 114 37.5889 82 -16 114.3C-69.8922 147 -124.189 245 -177.778 285.8C-231.67 327 -285.967 310 -339.556 285.8C-393.448 261 -447.745 229 -501.333 212.3C-555.226 196 -609.522 196 -663.111 171.5C-717.003 147 -771.3 98 -824.889 98C-878.781 98 -933.078 147 -986.667 155.2C-1040.56 163 -1094.86 131 -1148.44 114.3C-1202.34 98 -1256.63 98 -1310.22 89.8C-1364.11 82 -1418.41 65 -1472 98C-1525.89 131 -1580.19 212 -1633.78 220.5C-1687.67 229 -1741.97 163 -1795.56 187.8C-1849.45 212 -1903.74 327 -1957.33 359.3C-2011.23 392 -2065.52 343 -2119.11 318.5C-2173 294 -2227.3 294 -2280.89 318.5C-2334.78 343 -2389.08 392 -2415.37 416.5L-2442.67 441V0H-2415.67C-2388.77 0 -2334.48 0 -2280.89 0C-2227 0 -2172.7 0 -2119.11 0C-2065.22 0 -2010.92 0 -1957.33 0C-1903.44 0 -1849.14 0 -1795.56 0C-1741.66 0 -1687.37 0 -1633.78 0C-1579.89 0 -1525.59 0 -1472 0C-1418.11 0 -1363.81 0 -1310.22 0C-1256.33 0 -1202.03 0 -1148.44 0C-1094.55 0 -1040.26 0 -986.667 0C-932.774 0 -878.478 0 -824.889 0C-770.997 0 -716.7 0 -663.111 0C-609.219 0 -554.922 0 -501.333 0C-447.441 0 -393.145 0 -339.556 0C-285.663 0 -231.367 0 -177.778 0C-123.886 0 -69.5889 0 -16 0C37.8922 0 92.1888 0 145.778 0C199.67 0 253.967 0 307.556 0C361.448 0 415.744 0 469.333 0C523.226 0 577.522 0 631.111 0C685.003 0 739.3 0 792.889 0C846.781 0 901.078 0 954.667 0C1008.56 0 1062.86 0 1116.44 0C1170.34 0 1224.63 0 1278.22 0C1332.11 0 1386.41 0 1412.7 0H1440V392Z" fill="url(#paint1_linear_66_161)"/>
<path opacity="0.8" d="M1440 343L1413 326.7C1386.11 310 1331.81 278 1278.22 261.3C1224.33 245 1170.03 245 1116.44 269.5C1062.55 294 1008.26 343 954.667 326.7C900.774 310 846.478 229 792.889 212.3C738.997 196 684.7 245 631.111 285.8C577.219 327 522.922 359 469.333 375.7C415.441 392 361.144 392 307.556 334.8C253.663 278 199.367 163 145.778 106.2C91.8855 49 37.5889 49 -16 106.2C-69.8922 163 -124.189 278 -177.778 334.8C-231.67 392 -285.967 392 -339.556 408.3C-393.448 425 -447.745 457 -501.333 449.2C-555.226 441 -609.522 392 -663.111 359.3C-717.003 327 -771.3 310 -824.889 261.3C-878.781 212 -933.078 131 -986.667 130.7C-1040.56 131 -1094.86 212 -1148.44 253.2C-1202.34 294 -1256.63 294 -1310.22 294C-1364.11 294 -1418.41 294 -1472 318.5C-1525.89 343 -1580.19 392 -1633.78 424.7C-1687.67 457 -1741.97 474 -1795.56 408.3C-1849.45 343 -1903.74 196 -1957.33 171.5C-2011.23 147 -2065.52 245 -2119.11 294C-2173 343 -2227.3 343 -2280.89 318.5C-2334.78 294 -2389.08 245 -2415.37 220.5L-2442.67 196V7.62939e-06H-2415.67C-2388.77 7.62939e-06 -2334.48 7.62939e-06 -2280.89 7.62939e-06C-2227 7.62939e-06 -2172.7 7.62939e-06 -2119.11 7.62939e-06C-2065.22 7.62939e-06 -2010.92 7.62939e-06 -1957.33 7.62939e-06C-1903.44 7.62939e-06 -1849.14 7.62939e-06 -1795.56 7.62939e-06C-1741.66 7.62939e-06 -1687.37 7.62939e-06 -1633.78 7.62939e-06C-1579.89 7.62939e-06 -1525.59 7.62939e-06 -1472 7.62939e-06C-1418.11 7.62939e-06 -1363.81 7.62939e-06 -1310.22 7.62939e-06C-1256.33 7.62939e-06 -1202.03 7.62939e-06 -1148.44 7.62939e-06C-1094.55 7.62939e-06 -1040.26 7.62939e-06 -986.667 7.62939e-06C-932.774 7.62939e-06 -878.478 7.62939e-06 -824.889 7.62939e-06C-770.997 7.62939e-06 -716.7 7.62939e-06 -663.111 7.62939e-06C-609.219 7.62939e-06 -554.922 7.62939e-06 -501.333 7.62939e-06C-447.441 7.62939e-06 -393.145 7.62939e-06 -339.556 7.62939e-06C-285.663 7.62939e-06 -231.367 7.62939e-06 -177.778 7.62939e-06C-123.886 7.62939e-06 -69.5889 7.62939e-06 -16 7.62939e-06C37.8922 7.62939e-06 92.1888 7.62939e-06 145.778 7.62939e-06C199.67 7.62939e-06 253.967 7.62939e-06 307.556 7.62939e-06C361.448 7.62939e-06 415.744 7.62939e-06 469.333 7.62939e-06C523.226 7.62939e-06 577.522 7.62939e-06 631.111 7.62939e-06C685.003 7.62939e-06 739.3 7.62939e-06 792.889 7.62939e-06C846.781 7.62939e-06 901.078 7.62939e-06 954.667 7.62939e-06C1008.56 7.62939e-06 1062.86 7.62939e-06 1116.44 7.62939e-06C1170.34 7.62939e-06 1224.63 7.62939e-06 1278.22 7.62939e-06C1332.11 7.62939e-06 1386.41 7.62939e-06 1412.7 7.62939e-06H1440V343Z" fill="url(#paint2_linear_66_161)"/>
</g>
<defs>
<linearGradient id="paint0_linear_66_161" x1="1440" y1="1.09673e-05" x2="1440" y2="482.223" gradientUnits="userSpaceOnUse">
<stop stop-color="#FD269B"/>
<stop offset="1" stop-color="#F60642"/>
</linearGradient>
<linearGradient id="paint1_linear_66_161" x1="1440" y1="0" x2="1440" y2="441" gradientUnits="userSpaceOnUse">
<stop stop-color="#F60642"/>
<stop offset="1" stop-color="#ED0C3D" stop-opacity="0.22"/>
</linearGradient>
<linearGradient id="paint2_linear_66_161" x1="1440" y1="7.62939e-06" x2="1440" y2="453.25" gradientUnits="userSpaceOnUse">
<stop stop-color="#F60642"/>
<stop offset="1" stop-color="#ED0C3D" stop-opacity="0.6"/>
</linearGradient>
<clipPath id="clip0_66_161">
<rect width="1456" height="490" fill="white" transform="matrix(-1 0 0 -1 1440 490)"/>
</clipPath>
</defs>
</svg>
